<?xml version="1.0" encoding="UTF-8" standalone="no"?>
<!-- Generator: Adobe Illustrator 16.0.0, SVG Export Plug-In . SVG Version: 6.00 Build 0)  -->

<svg
   xmlns:dc="http://purl.org/dc/elements/1.1/"
   xmlns:cc="http://creativecommons.org/ns#"
   xmlns:rdf="http://www.w3.org/1999/02/22-rdf-syntax-ns#"
   xmlns:svg="http://www.w3.org/2000/svg"
   xmlns="http://www.w3.org/2000/svg"
   xmlns:sodipodi="http://sodipodi.sourceforge.net/DTD/sodipodi-0.dtd"
   xmlns:inkscape="http://www.inkscape.org/namespaces/inkscape"
   version="1.1"
   id="Calque_1"
   x="0px"
   y="0px"
   width="50px"
   height="50px"
   viewBox="0 0 50 50"
   enable-background="new 0 0 50 50"
   xml:space="preserve"
   inkscape:version="0.48.4 r9939"
   sodipodi:docname="contact-facebook.svg"><metadata
     id="metadata14"><rdf:RDF><cc:Work
         rdf:about=""><dc:format>image/svg+xml</dc:format><dc:type
           rdf:resource="http://purl.org/dc/dcmitype/StillImage" /></cc:Work></rdf:RDF></metadata><defs
     id="defs12" /><sodipodi:namedview
     pagecolor="#ffffff"
     bordercolor="#666666"
     borderopacity="1"
     objecttolerance="10"
     gridtolerance="10"
     guidetolerance="10"
     inkscape:pageopacity="0"
     inkscape:pageshadow="2"
     inkscape:window-width="789"
     inkscape:window-height="480"
     id="namedview10"
     showgrid="false"
     inkscape:zoom="4.72"
     inkscape:cx="25"
     inkscape:cy="25"
     inkscape:window-x="0"
     inkscape:window-y="27"
     inkscape:window-maximized="0"
     inkscape:current-layer="Calque_1" /><path
     fill="#284B6D"
     d="M25,49.557C11.459,49.557,0.443,38.541,0.443,25S11.459,0.443,25,0.443S49.557,11.459,49.557,25  S38.541,49.557,25,49.557z M25,1.443C12.011,1.443,1.443,12.011,1.443,25S12.011,48.557,25,48.557S48.557,37.989,48.557,25  S37.989,1.443,25,1.443z"
     id="path3"
     style="fill:#284B6D;fill-opacity:1" /><g
     id="_x39_forYL_2_"
     style="fill:#284B6D;fill-opacity:1"><g
       id="g6"
       style="fill:#284B6D;fill-opacity:1"><path
         fill="#284B6D"
         d="M20.167,21.472c0.714,0,1.402,0,2.14,0c0-0.679-0.013-1.316,0.004-1.953    c0.019-0.626-0.003-1.265,0.119-1.872c0.306-1.52,1.349-2.38,2.818-2.561c1.423-0.174,2.875-0.131,4.312-0.165    c0.086-0.002,0.248,0.162,0.25,0.251c0.018,1.029,0.006,2.059,0.015,3.087c0.001,0.246-0.124,0.286-0.325,0.285    c-0.682-0.004-1.363-0.004-2.044,0.001c-0.599,0.005-0.835,0.23-0.845,0.814c-0.01,0.681-0.002,1.362-0.002,2.097    c1.068,0,2.115,0,3.225,0c-0.037,0.506-0.064,0.952-0.102,1.398c-0.051,0.597-0.117,1.195-0.162,1.793    c-0.021,0.273-0.176,0.318-0.404,0.315c-0.827-0.006-1.654-0.001-2.557-0.001c0,0.179,0,0.332,0,0.485    c0,3.047-0.008,6.094,0.007,9.141c0.003,0.394-0.12,0.5-0.5,0.491c-1.122-0.021-2.245-0.02-3.368,0    c-0.353,0.006-0.452-0.1-0.45-0.453c0.014-3.034,0.008-6.066,0.008-9.102c0-0.158,0-0.32,0-0.536c-0.719,0-1.417,0-2.141,0    C20.167,23.803,20.167,22.673,20.167,21.472z"
         id="path8"
         style="fill:#284B6D;fill-opacity:1" /></g></g></svg>