<?xml version="1.0" encoding="utf-8"?>
<!-- Generator: Adobe Illustrator 16.0.0, SVG Export Plug-In . SVG Version: 6.00 Build 0)  -->
<!DOCTYPE svg PUBLIC "-//W3C//DTD SVG 1.1//EN" "http://www.w3.org/Graphics/SVG/1.1/DTD/svg11.dtd">
<svg version="1.1" id="Calque_1" xmlns="http://www.w3.org/2000/svg" xmlns:xlink="http://www.w3.org/1999/xlink" x="0px" y="0px"
	 width="50px" height="50px" viewBox="0 0 50 50" enable-background="new 0 0 50 50" xml:space="preserve">
<path fill="#34383D" d="M25,49.557C11.459,49.557,0.443,38.541,0.443,25S11.459,0.443,25,0.443S49.557,11.459,49.557,25
	S38.541,49.557,25,49.557z M25,1.443C12.011,1.443,1.443,12.011,1.443,25S12.011,48.557,25,48.557S48.557,37.989,48.557,25
	S37.989,1.443,25,1.443z"/>
<path fill="#34383D" d="M16.087,20.213c0,1.848,0.617,3.182,1.834,3.967c0.996,0.642,2.154,0.738,2.754,0.738
	c0.146,0,0.264-0.005,0.345-0.01c0,0-0.19,1.24,0.73,2.47h-0.042c-1.595,0-6.799,0.334-6.799,4.611c0,4.354,4.779,4.573,5.738,4.573
	c0.075,0,0.12-0.002,0.12-0.002c0.01,0,0.08,0.002,0.195,0.002c0.616,0,2.207-0.078,3.683-0.795c1.916-0.93,2.888-2.547,2.888-4.808
	c0-2.185-1.48-3.483-2.562-4.435c-0.66-0.578-1.229-1.078-1.229-1.563c0-0.496,0.416-0.868,0.942-1.34
	c0.852-0.762,1.655-1.848,1.655-3.899c0-1.803-0.233-3.013-1.674-3.782c0.15-0.076,0.681-0.132,0.944-0.169
	c0.781-0.106,1.923-0.227,1.923-0.865v-0.123h-5.691C21.784,14.784,16.087,14.995,16.087,20.213z M25.273,31.368
	c0.109,1.739-1.38,3.024-3.614,3.187c-2.271,0.166-4.141-0.855-4.249-2.595c-0.053-0.835,0.314-1.653,1.033-2.306
	c0.729-0.661,1.73-1.068,2.819-1.148c0.129-0.008,0.256-0.013,0.384-0.013C23.748,28.493,25.171,29.729,25.273,31.368z
	 M23.788,19.022c0.558,1.964-0.285,4.018-1.628,4.396c-0.155,0.043-0.315,0.066-0.476,0.066c-1.23,0-2.451-1.246-2.902-2.961
	c-0.253-0.963-0.232-1.805,0.058-2.615c0.285-0.797,0.796-1.335,1.439-1.516c0.155-0.044,0.315-0.066,0.476-0.066
	C22.241,16.326,23.196,16.942,23.788,19.022z M33.377,23.3v-3.712h-2.352V23.3h-3.713v2.351h3.713v3.713h2.352V25.65h3.712V23.3
	H33.377z"/>
</svg>
