<?xml version="1.0" encoding="utf-8"?>
<!-- Generator: Adobe Illustrator 16.0.0, SVG Export Plug-In . SVG Version: 6.00 Build 0)  -->
<!DOCTYPE svg PUBLIC "-//W3C//DTD SVG 1.1//EN" "http://www.w3.org/Graphics/SVG/1.1/DTD/svg11.dtd">
<svg version="1.1" id="Calque_1" xmlns="http://www.w3.org/2000/svg" xmlns:xlink="http://www.w3.org/1999/xlink" x="0px" y="0px"
	 width="50px" height="50px" viewBox="0 0 50 50" enable-background="new 0 0 50 50" xml:space="preserve">
<path fill="#284B6D" d="M25,49.557C11.459,49.557,0.443,38.541,0.443,25S11.459,0.443,25,0.443S49.557,11.459,49.557,25
	S38.541,49.557,25,49.557z M25,1.443C12.011,1.443,1.443,12.011,1.443,25S12.011,48.557,25,48.557S48.557,37.989,48.557,25
	S37.989,1.443,25,1.443z"/>
<g>
	<path fill="#284B6D" d="M31.029,24.779c0,3.349-2.715,6.01-6.062,6.01c-3.35,0-6.063-2.68-6.063-6.029
		c0-0.398,0.039-0.426,0.112-1.093H15v7.915C15,33.312,16.34,35,18.072,35h13.79C33.591,35,35,33.312,35,31.582v-7.915h-4.083
		C30.99,24.333,31.029,24.38,31.029,24.779z"/>
	<circle fill="#284B6D" cx="24.967" cy="24.688" r="3.732"/>
	<path fill="#284B6D" d="M31.861,15h-13.79C16.34,15,15,16.063,15,17.794V21h5.015c1.099-1.333,2.906-2.565,4.952-2.565
		c2.045,0,3.852,1.232,4.951,2.565H35v-3.206C35,16.063,33.591,15,31.861,15z M33,18.532C33,18.791,32.744,19,32.428,19h-1.521
		c-0.316,0-0.572-0.208-0.572-0.467v-1.73c0-0.259,0.256-0.468,0.572-0.468h1.521c0.316,0,0.572,0.209,0.572,0.468V18.532z"/>
</g>
</svg>
