<?xml version="1.0" encoding="utf-8"?>
<!-- Generator: Adobe Illustrator 16.0.0, SVG Export Plug-In . SVG Version: 6.00 Build 0)  -->
<!DOCTYPE svg PUBLIC "-//W3C//DTD SVG 1.1//EN" "http://www.w3.org/Graphics/SVG/1.1/DTD/svg11.dtd">
<svg version="1.1" id="Calque_1" xmlns="http://www.w3.org/2000/svg" xmlns:xlink="http://www.w3.org/1999/xlink" x="0px" y="0px"
	 width="50px" height="50px" viewBox="0 0 50 50" enable-background="new 0 0 50 50" xml:space="preserve">
<path fill="#34383D" d="M25,49.557C11.459,49.557,0.443,38.541,0.443,25S11.459,0.443,25,0.443S49.557,11.459,49.557,25
	S38.541,49.557,25,49.557z M25,1.443C12.011,1.443,1.443,12.011,1.443,25S12.011,48.557,25,48.557S48.557,37.989,48.557,25
	S37.989,1.443,25,1.443z"/>
<g id="qH17be_6_">
	<g>
		<path fill="#34383D" d="M28.596,15.669c0.53,0,1.062,0,1.596,0c0.828,0.453,1.652,0.914,2.492,1.349
			c0.137,0.072,0.352,0.076,0.502,0.025c0.838-0.281,1.668-0.588,2.523-0.895c-0.264,0.957-0.91,1.646-1.574,2.417
			c0.711-0.197,1.424-0.393,2.264-0.623c-0.315,0.394-0.526,0.697-0.777,0.958c-0.383,0.396-0.805,0.754-1.186,1.152
			c-0.153,0.16-0.319,0.374-0.344,0.58c-0.1,0.849-0.094,1.714-0.226,2.558c-0.806,5.166-4.701,9.421-9.764,10.667
			c-0.901,0.222-1.833,0.319-2.75,0.474c-0.41,0-0.819,0-1.229,0c-0.131-0.034-0.262-0.093-0.395-0.103
			c-1.903-0.134-3.69-0.666-5.366-1.574c-0.222-0.12-0.438-0.252-0.761-0.438c3.552-0.207,5.761-0.872,6.61-1.976
			c-1.986-0.285-3.388-1.297-4.125-3.281c0.64,0,1.196,0,1.751,0c-2.075-0.896-3.288-2.351-3.395-4.67
			c0.665,0.187,1.26,0.354,1.982,0.558c-2.097-2.425-2.522-4.662-1.259-6.262c2.516,2.911,5.659,4.561,9.572,4.835
			c-0.257-1.832,0.118-3.404,1.503-4.527C26.912,16.346,27.802,16.067,28.596,15.669z"/>
	</g>
</g>
</svg>
