<?xml version="1.0" encoding="utf-8"?>
<!-- Generator: Adobe Illustrator 16.0.0, SVG Export Plug-In . SVG Version: 6.00 Build 0)  -->
<!DOCTYPE svg PUBLIC "-//W3C//DTD SVG 1.1//EN" "http://www.w3.org/Graphics/SVG/1.1/DTD/svg11.dtd">
<svg version="1.1" id="Calque_1" xmlns="http://www.w3.org/2000/svg" xmlns:xlink="http://www.w3.org/1999/xlink" x="0px" y="0px"
	 width="54px" height="54px" viewBox="0 0 54 54" enable-background="new 0 0 54 54" xml:space="preserve">
<g>
	<circle fill="#ffffff" stroke="#284B6D" cx="27" cy="27" r="26.768" stroke-width="1"/>
	<g id="VEmP3b_5_">
		<g>
			<path fill="#284B6D" d="M28.042,21.539c-0.239,0.737-0.462,1.423-0.646,1.99c-1.19-0.062-2.356-0.263-3.496-0.155
				c-3.351,0.314-6.001,3.412-6.189,7.084c-0.179,3.465,2.118,6.668,5.351,7.408c0.319,0.073,0.729,0.015,1.026-0.128
				c1.605-0.771,2.686-2.074,3.484-3.626c1.317-2.562,1.816-5.339,2.003-8.174c0.087-1.329,0.015-2.669,0.07-4.002
				c1.771,3.702,2.169,10.748-4.468,16.038c3.577,0.369,8.293-3.981,6.249-10.137c0.702-0.293,1.409-0.587,2.117-0.883
				c1.861,3.653,0.427,8.966-3.146,11.655c-3.423,2.577-8.753,2.305-11.872-0.607c-3.553-3.316-4.228-8.711-1.61-12.726
				C19.979,20.573,25.07,20.375,28.042,21.539z"/>
			<path fill="#284B6D" d="M37.055,14.162c1.954,2.559,1.858,6.992-0.157,9.396c-1.597,1.904-3.828,1.98-5.665,0.133
				c2.026-1.417,4.287-2.588,5.367-4.989c-1.302,1.896-2.987,3.279-5.19,4.046c-0.757,0.264-1.046,0.039-1.264-0.652
				c-0.591-1.87,0.075-3.558,1.816-4.458c0.322-0.167,0.651-0.353,1-0.428C34.784,16.817,36.191,15.87,37.055,14.162z"/>
			<path fill="#284B6D" d="M26.142,13.625c2.142,2.025,3.042,4.466,3.44,7.267C28.43,18.458,27.325,16.125,26.142,13.625z"/>
		</g>
	</g>
</g>
</svg>
